<?xml version="1.0" encoding="utf-8"?>
<!-- Generator: Adobe Illustrator 16.0.0, SVG Export Plug-In . SVG Version: 6.00 Build 0)  -->
<!DOCTYPE svg PUBLIC "-//W3C//DTD SVG 1.1//EN" "http://www.w3.org/Graphics/SVG/1.1/DTD/svg11.dtd">
<svg version="1.1" id="truck_1_" xmlns="http://www.w3.org/2000/svg" xmlns:xlink="http://www.w3.org/1999/xlink" x="0px" y="0px"
	 width="122px" height="40px" viewBox="0 0 122 40" enable-background="new 0 0 122 40" xml:space="preserve">
<g id="truck">
	<g>
		<path fill-rule="evenodd" clip-rule="evenodd" fill="#F4B60D" d="M33.392,16.679l-3.065-0.615
			c-0.154-0.443-0.335-0.873-0.536-1.288l1.735-2.604c0.529-0.793,0.424-1.851-0.25-2.524l-1.924-1.924
			c-0.387-0.386-0.898-0.585-1.415-0.585c-0.384,0-0.771,0.109-1.108,0.336L24.225,9.21c-0.417-0.202-0.847-0.382-1.29-0.537
			l-0.613-3.064C22.135,4.672,21.313,4,20.36,4H17.64c-0.953,0-1.774,0.672-1.961,1.608l-0.614,3.064
			c-0.443,0.155-0.873,0.336-1.289,0.537l-2.604-1.735c-0.339-0.227-0.725-0.336-1.108-0.336c-0.517,0-1.028,0.199-1.415,0.585
			L6.725,9.647c-0.674,0.674-0.779,1.731-0.25,2.524l1.735,2.604c-0.202,0.416-0.382,0.846-0.536,1.29l-3.065,0.613
			C3.673,16.865,3,17.687,3,18.64v2.721c0,0.953,0.673,1.773,1.608,1.961l3.065,0.613c0.154,0.443,0.335,0.874,0.536,1.29
			l-1.735,2.604c-0.529,0.792-0.424,1.849,0.25,2.523l1.924,1.924c0.387,0.387,0.898,0.585,1.415,0.585
			c0.384,0,0.771-0.109,1.108-0.336l2.604-1.734c0.417,0.202,0.847,0.382,1.29,0.535l0.613,3.065C15.865,35.326,16.687,36,17.64,36
			h2.721c0.953,0,1.774-0.674,1.961-1.609l0.614-3.065c0.443-0.153,0.873-0.334,1.289-0.535l2.604,1.734
			c0.339,0.227,0.725,0.336,1.108,0.336c0.517,0,1.028-0.198,1.415-0.585l1.924-1.924c0.674-0.675,0.779-1.731,0.25-2.523
			l-1.735-2.604c0.202-0.417,0.382-0.847,0.536-1.291l3.065-0.612C34.327,23.134,35,22.313,35,21.36V18.64
			C35,17.687,34.327,16.865,33.392,16.679z M29.934,21.973c-0.694,0.139-1.264,0.636-1.496,1.304
			c-0.129,0.369-0.278,0.728-0.447,1.075c-0.31,0.639-0.258,1.392,0.136,1.982l1.735,2.604l-1.924,1.924l-2.604-1.735
			c-0.334-0.223-0.721-0.337-1.109-0.337c-0.297,0-0.595,0.067-0.871,0.2c-0.347,0.168-0.705,0.319-1.075,0.447
			c-0.669,0.233-1.165,0.802-1.304,1.496l-0.614,3.066H17.64l-0.613-3.066c-0.139-0.694-0.635-1.263-1.304-1.496
			c-0.369-0.128-0.728-0.278-1.075-0.446c-0.276-0.134-0.574-0.201-0.872-0.201c-0.389,0-0.775,0.114-1.109,0.337l-2.604,1.735
			l-1.924-1.924l1.735-2.604c0.393-0.591,0.444-1.343,0.137-1.98c-0.168-0.348-0.319-0.705-0.448-1.075
			c-0.232-0.67-0.802-1.166-1.496-1.305L5.001,21.36L5,18.64l3.066-0.614c0.694-0.139,1.264-0.634,1.496-1.303
			c0.129-0.37,0.278-0.728,0.447-1.076c0.31-0.638,0.258-1.391-0.136-1.98l-1.735-2.604l1.924-1.925l2.604,1.736
			c0.334,0.223,0.721,0.335,1.109,0.335c0.297,0,0.595-0.066,0.871-0.198c0.347-0.169,0.705-0.319,1.075-0.448
			c0.669-0.233,1.165-0.803,1.304-1.497l0.614-3.064L20.36,6l0.613,3.065c0.139,0.694,0.635,1.264,1.304,1.497
			c0.369,0.129,0.728,0.277,1.075,0.446c0.276,0.134,0.574,0.2,0.872,0.2c0.389,0,0.775-0.112,1.109-0.335l2.604-1.736l1.924,1.925
			l-1.735,2.604c-0.393,0.59-0.444,1.342-0.137,1.979c0.168,0.348,0.319,0.705,0.448,1.075c0.232,0.669,0.802,1.165,1.496,1.304
			l3.065,0.615L33,21.36L29.934,21.973z M19,13c-3.865,0-7,3.135-7,7s3.135,7,7,7s7-3.135,7-7S22.865,13,19,13z M19,26.125
			c-3.382,0-6.125-2.744-6.125-6.125c0-3.383,2.743-6.125,6.125-6.125s6.125,2.742,6.125,6.125
			C25.125,23.381,22.382,26.125,19,26.125z M19,16c-2.21,0-4,1.789-4,4c0,2.209,1.79,4,4,4s4-1.791,4-4C23,17.789,21.21,16,19,16z
			 M19,22.999c-1.656,0-3-1.344-3-2.999c0-1.657,1.344-3.001,3-3.001s3,1.344,3,3.001C22,21.655,20.656,22.999,19,22.999z
			 M52,10.021V7c0-1.654-1.346-3-3-3s-3,1.346-3,3v3.021c-1.208,0.914-2,2.347-2,3.979c0,1.631,0.792,3.063,2,3.977v15.022
			C46,34.653,47.346,36,49,36s3-1.347,3-3.001V17.977c1.208-0.913,2-2.346,2-3.977C54,12.368,53.208,10.936,52,10.021z M48,7
			c0-0.554,0.447-1,1-1s1,0.446,1,1v2.1C49.677,9.034,49.343,9,49,9s-0.677,0.034-1,0.1V7z M50,32.999C50,33.552,49.553,34,49,34
			s-1-0.448-1-1.001V18.897C48.323,18.965,48.657,19,49,19s0.677-0.035,1-0.103V32.999z M51.865,14.84
			c-0.016,0.052-0.03,0.104-0.049,0.157c-0.095,0.264-0.217,0.515-0.378,0.737c-0.004,0.006-0.01,0.01-0.014,0.016
			c-0.174,0.238-0.381,0.449-0.616,0.626c-0.004,0.005-0.007,0.007-0.01,0.009c-0.241,0.182-0.51,0.327-0.799,0.43
			c-0.314,0.113-0.647,0.185-1,0.185s-0.686-0.071-1-0.185c-0.289-0.103-0.558-0.248-0.799-0.43
			c-0.003-0.002-0.006-0.004-0.01-0.009c-0.235-0.177-0.442-0.388-0.616-0.626c-0.004-0.006-0.01-0.01-0.014-0.016
			c-0.161-0.223-0.283-0.474-0.378-0.737c-0.019-0.053-0.033-0.105-0.049-0.157C46.055,14.572,46,14.292,46,14
			c0-0.295,0.055-0.574,0.135-0.842c0.016-0.053,0.03-0.105,0.049-0.157c0.095-0.263,0.217-0.514,0.378-0.738
			c0.004-0.006,0.01-0.009,0.014-0.016c0.174-0.235,0.381-0.449,0.616-0.627c0.004-0.002,0.007-0.006,0.01-0.007
			c0.241-0.18,0.51-0.326,0.799-0.43C48.314,11.071,48.647,11,49,11s0.686,0.071,1,0.184c0.289,0.104,0.558,0.25,0.799,0.43
			c0.003,0.001,0.006,0.005,0.01,0.007c0.235,0.178,0.442,0.392,0.616,0.627c0.004,0.007,0.01,0.01,0.014,0.016
			c0.161,0.225,0.283,0.476,0.378,0.738c0.019,0.052,0.033,0.104,0.049,0.157C51.945,13.426,52,13.705,52,14
			C52,14.292,51.945,14.572,51.865,14.84z M74,10.021V7c0-1.654-1.346-3-3-3s-3,1.346-3,3v3.021c-1.208,0.914-2,2.347-2,3.979
			c0,1.631,0.792,3.063,2,3.977v15.022C68,34.653,69.346,36,71,36s3-1.347,3-3.001V17.977c1.208-0.913,2-2.346,2-3.977
			C76,12.368,75.208,10.936,74,10.021z M70,7c0-0.554,0.447-1,1-1s1,0.446,1,1v2.1C71.677,9.034,71.343,9,71,9s-0.677,0.034-1,0.1V7
			z M72,32.999C72,33.552,71.553,34,71,34s-1-0.448-1-1.001V18.897C70.323,18.965,70.657,19,71,19s0.677-0.035,1-0.103V32.999z
			 M73.865,14.84c-0.016,0.052-0.03,0.104-0.049,0.157c-0.095,0.264-0.217,0.515-0.378,0.737c-0.004,0.006-0.01,0.01-0.014,0.016
			c-0.174,0.238-0.381,0.449-0.616,0.626c-0.004,0.005-0.007,0.007-0.01,0.009c-0.241,0.182-0.51,0.327-0.799,0.43
			c-0.314,0.113-0.647,0.185-1,0.185s-0.686-0.071-1-0.185c-0.289-0.103-0.558-0.248-0.799-0.43
			c-0.003-0.002-0.006-0.004-0.01-0.009c-0.235-0.177-0.442-0.388-0.616-0.626c-0.004-0.006-0.01-0.01-0.014-0.016
			c-0.161-0.223-0.283-0.474-0.378-0.737c-0.019-0.053-0.033-0.105-0.049-0.157C68.055,14.572,68,14.292,68,14
			c0-0.295,0.055-0.574,0.135-0.842c0.016-0.053,0.03-0.105,0.049-0.157c0.095-0.263,0.217-0.514,0.378-0.738
			c0.004-0.006,0.01-0.009,0.014-0.016c0.174-0.235,0.381-0.449,0.616-0.627c0.004-0.002,0.007-0.006,0.01-0.007
			c0.241-0.18,0.51-0.326,0.799-0.43C70.314,11.071,70.647,11,71,11s0.686,0.071,1,0.184c0.289,0.104,0.558,0.25,0.799,0.43
			c0.003,0.001,0.006,0.005,0.01,0.007c0.235,0.178,0.442,0.392,0.616,0.627c0.004,0.007,0.01,0.01,0.014,0.016
			c0.161,0.225,0.283,0.476,0.378,0.738c0.019,0.052,0.033,0.104,0.049,0.157C73.945,13.426,74,13.705,74,14
			C74,14.292,73.945,14.572,73.865,14.84z M63,22.021V7c0-1.654-1.346-3-3-3s-3,1.346-3,3v15.021c-1.208,0.913-2,2.348-2,3.978
			c0,1.631,0.792,3.065,2,3.977v3.023C57,34.653,58.346,36,60,36s3-1.347,3-3.001v-3.023c1.208-0.911,2-2.346,2-3.977
			C65,24.369,64.208,22.935,63,22.021z M59,7c0-0.554,0.447-1,1-1s1,0.446,1,1v14.1c-0.323-0.064-0.657-0.1-1-0.1
			s-0.677,0.035-1,0.1V7z M61,32.999C61,33.552,60.553,34,60,34s-1-0.448-1-1.001v-2.101C59.323,30.964,59.657,31,60,31
			s0.677-0.036,1-0.102V32.999z M62.865,26.839c-0.016,0.054-0.03,0.106-0.049,0.159c-0.095,0.264-0.217,0.513-0.378,0.736
			c-0.004,0.006-0.01,0.009-0.014,0.015c-0.174,0.239-0.381,0.45-0.616,0.627c-0.004,0.005-0.007,0.007-0.01,0.009
			c-0.241,0.181-0.51,0.327-0.799,0.43C60.686,28.927,60.353,29,60,29s-0.686-0.073-1-0.186c-0.289-0.103-0.558-0.249-0.799-0.43
			c-0.003-0.002-0.006-0.004-0.01-0.009c-0.235-0.177-0.442-0.388-0.616-0.627c-0.004-0.006-0.01-0.009-0.014-0.015
			c-0.161-0.224-0.283-0.473-0.378-0.736c-0.019-0.053-0.033-0.105-0.049-0.159C57.055,26.572,57,26.293,57,25.999
			s0.055-0.574,0.135-0.842c0.016-0.052,0.03-0.105,0.049-0.155c0.095-0.264,0.217-0.514,0.378-0.738
			c0.004-0.007,0.01-0.011,0.014-0.017c0.174-0.235,0.381-0.448,0.616-0.626c0.004-0.003,0.007-0.007,0.01-0.009
			c0.241-0.18,0.51-0.325,0.799-0.429c0.314-0.112,0.647-0.185,1-0.185s0.686,0.072,1,0.185c0.289,0.104,0.558,0.249,0.799,0.429
			c0.003,0.002,0.006,0.006,0.01,0.009c0.235,0.178,0.442,0.391,0.616,0.626c0.004,0.006,0.01,0.01,0.014,0.017
			c0.161,0.225,0.283,0.475,0.378,0.738c0.019,0.05,0.033,0.104,0.049,0.155C62.945,25.425,63,25.705,63,25.999
			S62.945,26.572,62.865,26.839z M109.832,15.444C109.646,15.166,109.334,15,109,15h-1c-0.553,0-1,0.447-1,1v6
			c0,0.552,0.447,0.999,1,0.999h4c0.553,0,1-0.447,1-0.999v-1.5c0-0.198-0.059-0.392-0.168-0.556L109.832,15.444z M112,22h-4v-6h1
			l3,4.5V22z M116.496,19.335l-4-6C111.938,12.499,111.004,12,110,12h-4v-2c0-1.655-1.346-3-3-3H88c-1.654,0-3,1.345-3,3v11
			c0,1.654,1.346,2.999,3,2.999V27c0,1.653,1.346,3,3,3h1.142c0.446,1.72,1.999,2.999,3.858,2.999c1.857,0,3.41-1.279,3.857-2.999
			h5.283c0.447,1.72,2,2.999,3.859,2.999c1.857,0,3.41-1.279,3.857-2.999H114c1.654,0,3-1.347,3-3v-6
			C117,20.406,116.826,19.829,116.496,19.335z M88,22c-0.553,0-1-0.447-1-1V10c0-0.553,0.447-1,1-1h15c0.553,0,1,0.447,1,1v11
			c0,0.553-0.447,1-1,1H88z M96,31c-1.105,0-2-0.896-2-2c0-1.105,0.895-2,2-2c1.104,0,2,0.895,2,2C98,30.104,97.104,31,96,31z
			 M109,31c-1.105,0-2-0.896-2-2c0-1.105,0.895-2,2-2c1.104,0,2,0.895,2,2C111,30.104,110.104,31,109,31z M115,27
			c0,0.553-0.447,1-1,1h-1.143c-0.447-1.721-2-3-3.857-3c-1.859,0-3.412,1.279-3.859,3h-5.283c-0.447-1.721-2-3-3.857-3
			c-1.859,0-3.412,1.279-3.858,3H91c-0.553,0-1-0.447-1-1v-3.001h13c1.654,0,3-1.345,3-2.999v-7h4c0.334,0,0.646,0.167,0.832,0.444
			l4,6.001C114.941,20.609,115,20.803,115,21V27z"/>
	</g>
</g>
</svg>
