<?xml version="1.0" encoding="utf-8"?>
<!-- Generator: Adobe Illustrator 16.0.0, SVG Export Plug-In . SVG Version: 6.00 Build 0)  -->
<!DOCTYPE svg PUBLIC "-//W3C//DTD SVG 1.1//EN" "http://www.w3.org/Graphics/SVG/1.1/DTD/svg11.dtd">
<svg version="1.1" id="iPhone_potrait_1_" xmlns="http://www.w3.org/2000/svg" xmlns:xlink="http://www.w3.org/1999/xlink" x="0px"
	 y="0px" width="10px" height="16px" viewBox="0 0 10 16" enable-background="new 0 0 10 16" xml:space="preserve">
<g id="iPhone_potrait">
	<g>
		<path fill-rule="evenodd" clip-rule="evenodd" fill="#FFFFFF" d="M9-0.001H1c-0.552,0-1,0.448-1,1v14c0,0.553,0.448,1,1,1h8
			c0.553,0,1-0.447,1-1v-14C10,0.447,9.553-0.001,9-0.001z M5,14.999c-0.552,0-1-0.224-1-0.5s0.448-0.5,1-0.5c0.553,0,1,0.224,1,0.5
			S5.553,14.999,5,14.999z M9,12.999H1v-11h8V12.999z"/>
	</g>
</g>
</svg>
