<?xml version="1.0" encoding="utf-8"?>
<!-- Generator: Adobe Illustrator 16.0.0, SVG Export Plug-In . SVG Version: 6.00 Build 0)  -->
<!DOCTYPE svg PUBLIC "-//W3C//DTD SVG 1.1//EN" "http://www.w3.org/Graphics/SVG/1.1/DTD/svg11.dtd">
<svg version="1.1" id="search_1_" xmlns="http://www.w3.org/2000/svg" xmlns:xlink="http://www.w3.org/1999/xlink" x="0px" y="0px"
	 width="13.969px" height="13.97px" viewBox="0 0 13.969 13.97" enable-background="new 0 0 13.969 13.97" xml:space="preserve">
<g id="search">
	<g>
		<path fill-rule="evenodd" clip-rule="evenodd" fill="#FFFFFF" d="M13.832,12.168l-1.996-1.996c-0.184-0.184-0.481-0.184-0.665,0
			l-0.054,0.054l-0.938-0.938c-0.024-0.023-0.054-0.037-0.081-0.054c0.784-0.974,1.256-2.209,1.256-3.557
			C11.353,2.542,8.811,0,5.677,0C2.542,0,0,2.542,0,5.677s2.542,5.677,5.677,5.677c1.347,0,2.583-0.472,3.557-1.257
			c0.017,0.027,0.03,0.058,0.054,0.081l0.938,0.938l-0.054,0.054c-0.184,0.184-0.184,0.481,0,0.665l1.996,1.997
			c0.184,0.184,0.481,0.184,0.665,0l0.998-0.999C14.015,12.649,14.015,12.352,13.832,12.168z M5.677,9.167
			c-1.928,0-3.49-1.563-3.49-3.49s1.563-3.49,3.49-3.49c1.927,0,3.49,1.563,3.49,3.49S7.604,9.167,5.677,9.167z"/>
	</g>
</g>
</svg>
