<?xml version="1.0" encoding="utf-8"?>
<!-- Generator: Adobe Illustrator 16.0.0, SVG Export Plug-In . SVG Version: 6.00 Build 0)  -->
<!DOCTYPE svg PUBLIC "-//W3C//DTD SVG 1.1//EN" "http://www.w3.org/Graphics/SVG/1.1/DTD/svg11.dtd">
<svg version="1.1" id="Слой_1" xmlns="http://www.w3.org/2000/svg" xmlns:xlink="http://www.w3.org/1999/xlink" x="0px" y="0px"
	 width="110.005px" height="34.297px" viewBox="-31.495 0 110.005 34.297" enable-background="new -31.495 0 110.005 34.297"
	 xml:space="preserve">
<path fill="#6087C5" d="M51.675,9.131c0.052-0.349,0.089-0.703,0.089-1.065c0-3.939-3.193-7.132-7.134-7.132
	c-0.368,0-0.728,0.036-1.08,0.09c-0.711-0.608-1.632-0.977-2.641-0.977c-2.246,0-4.067,1.821-4.067,4.068
	c0,0.917,0.307,1.761,0.819,2.44c-0.104,0.487-0.163,0.992-0.163,1.511c0,3.94,3.191,7.134,7.132,7.134c0.507,0,1-0.055,1.476-0.156
	c0.715,0.623,1.647,1.003,2.67,1.003c2.246,0,4.066-1.821,4.066-4.068C52.843,10.87,52.396,9.864,51.675,9.131z M47.959,11.172
	c-0.281,0.399-0.693,0.712-1.234,0.937c-0.541,0.227-1.183,0.34-1.924,0.34c-0.89,0-1.625-0.154-2.203-0.464
	c-0.408-0.222-0.742-0.519-0.998-0.891c-0.257-0.37-0.386-0.732-0.386-1.083c0-0.204,0.078-0.378,0.229-0.521
	c0.154-0.146,0.352-0.218,0.589-0.218c0.192,0,0.356,0.056,0.489,0.17c0.133,0.113,0.246,0.28,0.34,0.502
	c0.115,0.265,0.24,0.485,0.373,0.661c0.133,0.178,0.32,0.324,0.563,0.439s0.561,0.173,0.954,0.173c0.542,0,0.981-0.115,1.319-0.347
	c0.338-0.231,0.507-0.521,0.507-0.868c0-0.274-0.091-0.498-0.272-0.669c-0.184-0.172-0.418-0.303-0.709-0.394
	c-0.289-0.089-0.675-0.186-1.16-0.288c-0.646-0.14-1.188-0.303-1.625-0.488c-0.438-0.188-0.785-0.442-1.039-0.764
	c-0.258-0.323-0.385-0.724-0.385-1.201c0-0.457,0.135-0.861,0.406-1.216c0.27-0.354,0.661-0.627,1.175-0.817
	c0.513-0.19,1.115-0.285,1.808-0.285c0.553,0,1.033,0.062,1.436,0.188c0.404,0.126,0.739,0.294,1.006,0.503
	c0.266,0.21,0.461,0.43,0.584,0.66c0.124,0.229,0.186,0.454,0.186,0.671c0,0.2-0.077,0.381-0.23,0.541
	c-0.154,0.159-0.346,0.24-0.574,0.24c-0.209,0-0.369-0.049-0.478-0.145c-0.108-0.095-0.228-0.253-0.354-0.471
	c-0.164-0.312-0.359-0.558-0.591-0.732c-0.229-0.175-0.599-0.263-1.106-0.263c-0.471,0-0.852,0.095-1.141,0.285
	c-0.289,0.189-0.434,0.419-0.434,0.687c0,0.166,0.049,0.309,0.146,0.429c0.099,0.121,0.233,0.224,0.406,0.311
	c0.171,0.087,0.346,0.154,0.521,0.205c0.177,0.047,0.468,0.12,0.875,0.214c0.507,0.109,0.968,0.23,1.38,0.362
	c0.411,0.132,0.762,0.292,1.051,0.48c0.29,0.189,0.517,0.428,0.677,0.716c0.162,0.288,0.243,0.642,0.243,1.061
	C48.38,10.322,48.238,10.772,47.959,11.172z"/>
<path fill="#6087C5" d="M1.988,3.11C1.72,3.258,0.911,3.555,0.157,3.629c0.483-0.26,1.199-1.114,1.376-1.793
	C1.067,2.133,0,2.566-0.527,2.566c0,0,0,0.001,0.001,0.002c-0.602-0.629-1.448-1.021-2.387-1.021c-1.823,0-3.301,1.477-3.301,3.301
	c0,0.253,0.03,0.499,0.084,0.735l0,0c-2.473-0.063-5.363-1.302-6.993-3.424c-1,1.732-0.135,3.658,1.001,4.361
	c-0.388,0.03-1.104-0.044-1.442-0.372c-0.023,1.149,0.53,2.673,2.546,3.225c-0.388,0.21-1.074,0.15-1.374,0.104
	c0.105,0.971,1.465,2.241,2.95,2.241c-0.529,0.612-2.335,1.724-4.571,1.369c1.519,0.925,3.29,1.46,5.163,1.46
	c5.325,0,9.461-4.316,9.238-9.64c0-0.006-0.002-0.013-0.002-0.018c0-0.014,0.002-0.029,0.002-0.042c0-0.017-0.002-0.032-0.002-0.05
	C0.873,4.468,1.522,3.882,1.988,3.11z"/>
<path fill="#6087C5" d="M-21.793,3.093h2.063V0.047h-2.424v0.011c-2.936,0.103-3.539,1.755-3.592,3.489h-0.006v1.521h-1.999v2.983
	h1.999v7.996h3.015V8.051h2.469l0.476-2.984h-2.945V4.148C-22.737,3.564-22.348,3.093-21.793,3.093z"/>
<g id="XMLID_1_">
	<g>
		<path fill="#CBCACA" d="M51.672,26.229c0.72,0.74,1.17,1.74,1.17,2.851c0,2.25-1.819,4.069-4.069,4.069
			c-1.021,0-1.95-0.379-2.67-1c-0.471,0.101-0.971,0.15-1.471,0.15c-3.939,0-7.13-3.189-7.13-7.13c0-0.521,0.05-1.03,0.16-1.51
			c-0.511-0.681-0.82-1.53-0.82-2.44c0-2.25,1.82-4.07,4.07-4.07c1.01,0,1.93,0.371,2.64,0.98c0.35-0.061,0.711-0.09,1.08-0.09
			c3.94,0,7.131,3.189,7.131,7.13C51.763,25.528,51.722,25.879,51.672,26.229z M48.382,26.919c0-0.42-0.08-0.771-0.25-1.06
			c-0.16-0.28-0.38-0.521-0.67-0.711c-0.29-0.189-0.64-0.35-1.05-0.479c-0.42-0.13-0.88-0.26-1.38-0.36
			c-0.41-0.1-0.7-0.17-0.881-0.22c-0.17-0.05-0.35-0.12-0.52-0.2c-0.17-0.09-0.31-0.189-0.41-0.31c-0.09-0.12-0.14-0.271-0.14-0.431
			c0-0.27,0.14-0.5,0.431-0.689c0.289-0.189,0.67-0.29,1.139-0.29c0.511,0,0.881,0.091,1.111,0.271c0.229,0.17,0.42,0.42,0.59,0.729
			c0.119,0.22,0.239,0.38,0.35,0.47c0.109,0.101,0.27,0.15,0.48,0.15c0.229,0,0.42-0.09,0.569-0.24c0.16-0.16,0.229-0.35,0.229-0.55
			c0-0.21-0.06-0.44-0.18-0.67c-0.119-0.229-0.32-0.45-0.58-0.66c-0.27-0.21-0.609-0.37-1.01-0.5s-0.88-0.19-1.439-0.19
			c-0.69,0-1.291,0.101-1.801,0.291c-0.52,0.189-0.91,0.459-1.18,0.81c-0.27,0.36-0.4,0.76-0.4,1.22c0,0.48,0.121,0.881,0.381,1.2
			c0.25,0.319,0.6,0.58,1.039,0.761c0.44,0.189,0.98,0.35,1.621,0.489c0.489,0.101,0.869,0.2,1.159,0.29s0.53,0.221,0.71,0.391
			c0.18,0.18,0.28,0.399,0.28,0.67c0,0.35-0.17,0.64-0.51,0.869c-0.341,0.23-0.78,0.35-1.32,0.35c-0.39,0-0.71-0.059-0.95-0.17
			c-0.25-0.119-0.43-0.26-0.57-0.439c-0.129-0.18-0.25-0.4-0.369-0.66c-0.09-0.23-0.211-0.39-0.34-0.51
			c-0.131-0.109-0.301-0.17-0.49-0.17c-0.24,0-0.43,0.08-0.59,0.22c-0.15,0.15-0.23,0.32-0.23,0.521c0,0.359,0.13,0.72,0.391,1.09
			c0.25,0.369,0.59,0.67,1,0.89c0.569,0.31,1.31,0.46,2.199,0.46c0.74,0,1.381-0.109,1.92-0.34c0.541-0.22,0.961-0.54,1.24-0.939
			C48.242,27.87,48.382,27.419,48.382,26.919z"/>
		<path fill="#FFFFFF" d="M73.55,26.758c0.17,0.289,0.25,0.64,0.25,1.06c0,0.5-0.14,0.95-0.42,1.351
			c-0.279,0.399-0.699,0.72-1.24,0.939c-0.539,0.23-1.18,0.34-1.92,0.34c-0.89,0-1.63-0.15-2.199-0.46c-0.41-0.22-0.75-0.521-1-0.89
			c-0.261-0.37-0.391-0.73-0.391-1.09c0-0.2,0.08-0.37,0.23-0.521c0.16-0.14,0.35-0.22,0.59-0.22c0.189,0,0.359,0.061,0.49,0.17
			c0.129,0.12,0.25,0.279,0.34,0.51c0.119,0.26,0.24,0.48,0.369,0.66c0.141,0.18,0.32,0.32,0.57,0.439
			c0.24,0.111,0.561,0.17,0.95,0.17c0.54,0,0.979-0.119,1.32-0.35c0.34-0.229,0.51-0.52,0.51-0.869c0-0.271-0.101-0.49-0.28-0.67
			c-0.18-0.17-0.42-0.301-0.71-0.391s-0.67-0.189-1.159-0.29c-0.641-0.14-1.181-0.3-1.621-0.489
			c-0.439-0.181-0.789-0.441-1.039-0.761c-0.26-0.319-0.381-0.72-0.381-1.2c0-0.46,0.131-0.859,0.4-1.22
			c0.27-0.351,0.66-0.62,1.18-0.81c0.51-0.19,1.11-0.291,1.801-0.291c0.56,0,1.039,0.061,1.439,0.19s0.74,0.29,1.01,0.5
			c0.26,0.21,0.461,0.431,0.58,0.66c0.12,0.229,0.18,0.46,0.18,0.67c0,0.2-0.069,0.39-0.229,0.55c-0.149,0.15-0.34,0.24-0.569,0.24
			c-0.211,0-0.371-0.05-0.48-0.15c-0.11-0.09-0.23-0.25-0.35-0.47c-0.17-0.31-0.36-0.56-0.59-0.729
			c-0.23-0.18-0.601-0.271-1.111-0.271c-0.469,0-0.85,0.101-1.139,0.29c-0.291,0.189-0.431,0.42-0.431,0.689
			c0,0.16,0.05,0.311,0.14,0.431c0.101,0.12,0.24,0.22,0.41,0.31c0.17,0.08,0.35,0.15,0.52,0.2c0.181,0.05,0.471,0.12,0.881,0.22
			c0.5,0.101,0.96,0.23,1.38,0.36c0.41,0.13,0.76,0.29,1.05,0.479C73.17,26.238,73.39,26.478,73.55,26.758z"/>
		<g>
			<path fill="#CBCACA" d="M35.433,26.494v5.67h-3v-5.439c0-1.121-0.32-2.24-1.641-2.24c-1.311,0-2.359,1.119-2.359,2.27v5.41
				h-3.011v-10.01h3.011v1.38c0.92-1.17,2.22-1.7,3.68-1.7C33.562,21.833,35.433,22.562,35.433,26.494z"/>
			<rect x="20.443" y="22.183" fill="#CBCACA" width="2.99" height="9.98"/>
			<path fill="#CBCACA" d="M23.843,18.894c0,0.97-0.871,1.76-1.951,1.76c-1.09,0-1.959-0.79-1.959-1.76
				c0-0.971,0.869-1.76,1.959-1.76C22.972,17.134,23.843,17.923,23.843,18.894z"/>
		</g>
		<g>
			<path fill="#CBCACA" d="M18.567,31.979c0,0.061-0.01,0.11-0.01,0.17h-2.8c0-0.06,0.01-0.109,0.01-0.17
				c0-6.64-5.42-12.039-12.09-12.039c-0.04,0-0.07,0-0.11,0v-2.791c0.04,0,0.07,0,0.11,0C11.887,17.149,18.567,23.799,18.567,31.979
				z"/>
			<path fill="#CBCACA" d="M13.487,31.979c0,0.061-0.01,0.11-0.01,0.17h-2.8c0-0.06,0.01-0.109,0.01-0.17
				c0-3.85-3.14-6.979-7.01-6.979c-0.04,0-0.07,0-0.11,0v-2.79c0.04,0,0.07-0.01,0.11-0.01C9.087,22.2,13.487,26.589,13.487,31.979z
				"/>
			<path fill="#CBCACA" d="M5.527,28.12c1.12,0,2.02,0.9,2.02,2.01c0,1.12-0.9,2.02-2.02,2.02s-2.02-0.899-2.02-2.02
				C3.507,29.02,4.407,28.12,5.527,28.12z"/>
		</g>
		<path fill="#CBCACA" d="M1.987,21.079c-0.46,0.77-1.11,1.359-1.6,1.689c0,0.021,0,0.031,0,0.051c0,0.01,0,0.029,0,0.04
			c0,0.01,0,0.01,0,0.021c0.23,5.319-3.91,9.639-9.23,9.639c-1.88,0-3.65-0.539-5.17-1.459c2.24,0.35,4.04-0.76,4.57-1.371
			c-1.48,0-2.84-1.27-2.95-2.239c0.3,0.04,0.99,0.101,1.38-0.11c-2.02-0.55-2.57-2.07-2.55-3.22c0.34,0.33,1.05,0.399,1.44,0.37
			c-1.13-0.7-2-2.63-1-4.359c0.81,1.059,1.95,1.899,3.18,2.479c1.23,0.59,2.57,0.909,3.81,0.95c-0.05-0.24-0.08-0.49-0.08-0.74
			c0-1.82,1.48-3.301,3.3-3.301c0.94,0,1.79,0.391,2.39,1.021c0.52,0,1.59-0.44,2.06-0.729c-0.18,0.68-0.9,1.529-1.38,1.789
			C0.908,21.529,1.717,21.229,1.987,21.079z"/>
		<path fill="#CBCACA" d="M-19.73,17.149v3.04h-2.06c-0.56,0-0.95,0.47-0.95,1.06v0.92h2.95l-0.48,2.98h-2.47v8h-3.01v-8h-2v-2.98h2
			v-1.52c0.06-1.74,0.66-3.391,3.6-3.49v-0.01H-19.73z"/>
	</g>
</g>
<g>
	<path fill="#6087C5" d="M5.501,11.221c-1.117,0-2.023,0.903-2.023,2.016c0,1.113,0.906,2.015,2.023,2.015
		c1.118,0,2.023-0.902,2.023-2.015C7.524,12.124,6.619,11.221,5.501,11.221z"/>
	<path fill="#6087C5" d="M3.653,5.308c-0.038,0-0.077,0.007-0.116,0.008v2.792c0.039-0.001,0.078-0.006,0.116-0.006
		c3.862,0,7.005,3.131,7.005,6.979c0,0.059-0.007,0.116-0.009,0.175h2.801c0.001-0.059,0.009-0.116,0.009-0.175
		C13.459,9.691,9.06,5.308,3.653,5.308z"/>
	<path fill="#6087C5" d="M3.653,0.249c-0.038,0-0.077,0.002-0.116,0.002v2.792c0.039,0,0.078-0.003,0.116-0.003
		c6.663,0,12.083,5.401,12.083,12.04c0,0.059-0.004,0.116-0.004,0.175h2.801c0.001-0.059,0.004-0.116,0.004-0.175
		C18.537,6.903,11.86,0.249,3.653,0.249z"/>
</g>
<g>
	<path fill="#6087C5" d="M20.441,15.449h2.998V5.461h-2.998V15.449z"/>
	<path fill="#6087C5" d="M32.113,5.116c-1.453,0-2.754,0.53-3.678,1.703v-1.39h-3.006v10.019h3.006v-5.417
		c0-1.145,1.049-2.262,2.364-2.262s1.638,1.117,1.638,2.234v5.446h2.996v-5.67C35.433,5.842,33.568,5.116,32.113,5.116z"/>
	<path fill="#6087C5" d="M21.892,0.417c-1.082,0-1.959,0.789-1.959,1.761c0,0.97,0.877,1.759,1.959,1.759
		c1.08,0,1.957-0.788,1.957-1.759C23.849,1.206,22.972,0.417,21.892,0.417z"/>
</g>
</svg>
